<?xml version="1.0" encoding="UTF-8"?>
<svg xmlns="http://www.w3.org/2000/svg" version="1.1" viewBox="0 0 1943.1 643.6">
  <!-- Generator: Adobe Illustrator 28.7.5, SVG Export Plug-In . SVG Version: 1.2.0 Build 176)  -->
  <g>
    <g id="Layer_1">
      <g>
        <path d="M11.6,332.3V18.3h192.9c40.9,0,71.5,6.6,91.7,19.9,20.2,13.3,30.3,34.7,30.3,64.4s-4.5,34.8-13.6,48.9c-9.1,14.1-21.8,24.4-38.3,30.7,11.3,4.6,19.5,9.8,24.9,15.6,5.3,5.8,9,12.7,10.8,21s3.1,18.4,3.7,30.5c.9,18.7,2,35.1,3.4,49.1,1.4,14,5.9,25.3,13.4,34h-88.2c-4.3-6.9-6.5-15-6.5-24.2v-21.6c0-17.9-1.3-31.9-3.9-41.9-2.6-10.1-7.9-17.2-15.8-21.4-7.9-4.2-19.7-6.3-35.2-6.3h-90.8v115.5H11.6ZM90.3,82.8v69.6h89.1c21.3,0,37.3-2.5,48-7.6,10.7-5,16-14.9,16-29.6s-2.5-17.4-7.3-21.8c-4.9-4.5-12.3-7.4-22.3-8.7-9.9-1.3-22.6-1.9-37.8-1.9h-85.6Z"/>
        <path d="M340.2,332.3L489,18.3h75.3l143.2,314h-87.4l-28.6-66.6h-138.4l-28.1,66.6h-84.8ZM479.9,202.1h83l-42-96.9-41.1,96.9Z"/>
        <path d="M813.7,18.3v314h-78.7V18.3h78.7Z"/>
        <path d="M1187.4,123h-78.3c-3.5-31.1-29.1-46.7-77-46.7s-40.1,3.2-51.9,9.7c-11.8,6.5-17.7,15.2-17.7,26.2s5,19.1,14.9,22.7c9.9,3.6,26.2,6.6,48.7,8.9l58.4,6.1c39.5,4.3,68.9,13.8,88,28.5,19.2,14.7,28.8,35.9,28.8,63.6s-14.1,60.7-42.2,79.2c-28.1,18.5-69.7,27.7-124.8,27.7s-93.4-9.7-120.9-29c-27.5-19.3-41.3-48.6-41.3-87.8h80.5c-.3,38.1,30.1,57.1,91.3,57.1s41.1-3.4,53.4-10.2c12.3-6.8,18.4-16.2,18.4-28.3s-5-20.3-14.9-24.6c-9.9-4.3-25.6-7.5-46.9-9.5l-55.4-5.6c-40.1-4-69.9-13.1-89.5-27.2-19.6-14.1-29.4-34.5-29.4-61s6-37.3,18.1-53c12.1-15.7,29.5-28.2,52.1-37.4,22.6-9.2,49.7-13.8,81.1-13.8,50.2,0,88.8,9.2,115.9,27.7,27.1,18.5,40.7,44.1,40.7,77Z"/>
        <path d="M1258.2,18.3h279v64.4h-200.2v52.3h178.2v64.4h-178.2v68.3h200.2v64.4h-279V18.3Z"/>
        <path d="M1595.5,332.3V18.3h160.5c24.2,0,47,2.9,68.3,8.7,21.3,5.8,40,14.8,56,27.2,16,12.4,28.5,28.5,37.6,48.4,9.1,19.9,13.6,44.1,13.6,72.7s-4.9,55.6-14.7,75.9c-9.8,20.3-23.5,36.4-41.1,48.2-17.6,11.8-38.2,20.2-61.8,25.3-23.7,5-49.2,7.6-76.6,7.6h-141.9ZM1674.2,82.8v185.1h61.4c36.3,0,63.7-8.1,82.2-24.2,18.5-16.1,27.7-39.4,27.7-69.6,0-60.8-36.6-91.3-109.9-91.3h-61.4Z"/>
        <g>
          <path d="M11.6,623.6l103.3-217.9h52.2l99.4,217.9h-60.6l-19.8-46.2h-96.1l-19.5,46.2H11.6ZM108.5,533.2h57.6l-29.1-67.2-28.5,67.2Z"/>
          <path d="M284.7,623.6v-217.9h129.1c25.6,0,45.4,6.6,59.3,19.8,13.9,13.2,20.9,31.3,20.9,54.3s-7,41.3-20.9,54.9c-13.9,13.6-33.7,20.4-59.3,20.4h-74.4v68.4h-54.6ZM339.3,450.3v60h50.1c17,0,29.6-1.9,37.7-5.8,8.1-3.9,12.2-11.9,12.2-23.9s-3.7-20.6-11-24.5c-7.3-3.9-19.1-5.9-35.3-5.9h-53.7Z"/>
          <path d="M530.8,623.6v-217.9h129.1c25.6,0,45.4,6.6,59.3,19.8,13.9,13.2,20.9,31.3,20.9,54.3s-7,41.3-20.9,54.9c-13.9,13.6-33.7,20.4-59.3,20.4h-74.4v68.4h-54.6ZM585.4,450.3v60h50.1c17,0,29.6-1.9,37.7-5.8,8.1-3.9,12.2-11.9,12.2-23.9s-3.7-20.6-11-24.5c-7.3-3.9-19.1-5.9-35.3-5.9h-53.7Z"/>
          <path d="M746.6,623.6l103.3-217.9h52.2l99.4,217.9h-60.6l-19.8-46.2h-96.1l-19.5,46.2h-58.9ZM843.6,533.2h57.6l-29.1-67.2-28.5,67.2Z"/>
          <path d="M1019.7,623.6v-217.9h133.9c28.4,0,49.6,4.6,63.6,13.8,14,9.2,21,24.1,21,44.7s-3.2,24.1-9.5,33.9c-6.3,9.8-15.1,16.9-26.6,21.3,7.8,3.2,13.5,6.8,17.2,10.8,3.7,4,6.2,8.8,7.5,14.6,1.3,5.7,2.2,12.8,2.6,21.2.6,13,1.4,24.4,2.4,34.1,1,9.7,4.1,17.6,9.3,23.5h-61.2c-3-4.8-4.5-10.4-4.5-16.8v-15c0-12.4-.9-22.1-2.7-29.1-1.8-7-5.5-12-11-14.9-5.5-2.9-13.7-4.3-24.5-4.3h-63v80.1h-54.6ZM1074.4,450.3v48.3h61.8c14.8,0,25.9-1.7,33.3-5.2,7.4-3.5,11.1-10.4,11.1-20.6s-1.7-12.1-5.1-15.2c-3.4-3.1-8.5-5.1-15.4-6-6.9-.9-15.7-1.4-26.3-1.4h-59.4Z"/>
          <path d="M1278.1,405.6h193.6v44.7h-139v36.3h123.7v44.7h-123.7v47.4h139v44.7h-193.6v-217.9Z"/>
          <path d="M1566.9,405.6v173.2h112v44.7h-166.6v-217.9h54.6Z"/>
          <path d="M1922,472.5h-54.3c-2.4-21.6-20.2-32.4-53.4-32.4s-27.8,2.3-36,6.8c-8.2,4.5-12.3,10.6-12.3,18.1s3.4,13.3,10.3,15.8c6.9,2.5,18.2,4.6,33.8,6.1l40.5,4.2c27.4,3,47.8,9.6,61.1,19.8,13.3,10.2,20,24.9,20,44.1s-9.8,42.1-29.3,55c-19.5,12.8-48.4,19.2-86.6,19.2s-64.8-6.7-83.9-20.1c-19.1-13.4-28.7-33.7-28.7-60.9h55.8c-.2,26.4,20.9,39.6,63.3,39.6s28.6-2.3,37.1-7c8.5-4.7,12.8-11.3,12.8-19.7s-3.5-14.1-10.4-17.1c-6.9-3-17.8-5.2-32.6-6.6l-38.4-3.9c-27.8-2.8-48.5-9.1-62.2-18.9-13.6-9.8-20.4-23.9-20.4-42.3s4.2-25.9,12.6-36.8c8.4-10.9,20.5-19.6,36.2-26,15.7-6.4,34.5-9.6,56.3-9.6,34.8,0,61.6,6.4,80.5,19.2,18.8,12.8,28.2,30.6,28.2,53.4Z"/>
        </g>
      </g>
    </g>
  </g>
</svg>